<?xml version="1.0" encoding="UTF-8" standalone="no"?>
<!-- Created with Inkscape (http://www.inkscape.org/) -->

<svg
   xmlns:dc="http://purl.org/dc/elements/1.1/"
   xmlns:cc="http://creativecommons.org/ns#"
   xmlns:rdf="http://www.w3.org/1999/02/22-rdf-syntax-ns#"
   xmlns:svg="http://www.w3.org/2000/svg"
   xmlns="http://www.w3.org/2000/svg"
   xmlns:sodipodi="http://sodipodi.sourceforge.net/DTD/sodipodi-0.dtd"
   xmlns:inkscape="http://www.inkscape.org/namespaces/inkscape"
   version="1.1"
   id="svg2"
   xml:space="preserve"
   width="100.04"
   height="100.04"
   viewBox="0 0 100.04 100.04"
   sodipodi:docname="behance.svg"
   inkscape:version="0.92.5 (2060ec1f9f, 2020-04-08)"><metadata
     id="metadata8"><rdf:RDF><cc:Work
         rdf:about=""><dc:format>image/svg+xml</dc:format><dc:type
           rdf:resource="http://purl.org/dc/dcmitype/StillImage" /><dc:title /></cc:Work></rdf:RDF></metadata><defs
     id="defs6" /><sodipodi:namedview
     pagecolor="#ffffff"
     bordercolor="#666666"
     borderopacity="1"
     objecttolerance="10"
     gridtolerance="10"
     guidetolerance="10"
     inkscape:pageopacity="0"
     inkscape:pageshadow="2"
     inkscape:window-width="1920"
     inkscape:window-height="1012"
     id="namedview4"
     showgrid="false"
     inkscape:zoom="1.9433989"
     inkscape:cx="67.245446"
     inkscape:cy="-5.8084595"
     inkscape:window-x="0"
     inkscape:window-y="32"
     inkscape:window-maximized="1"
     inkscape:current-layer="layer4" /><g
     inkscape:groupmode="layer"
     id="layer4"
     inkscape:label="behance"
     style="display:inline"
     transform="translate(-57.978802,4.2823871e-6)"><path
       inkscape:connector-curvature="0"
       d="M 107.9988,0.02 A 50,50 0 0 0 57.998802,50.020004 50,50 0 0 0 107.9988,100.02 a 50,50 0 0 0 50,-49.999996 50,50 0 0 0 -50,-50.000004 z M 71.998802,27.363973 h 21.32397 c 2.156,0 4.124,0.192 5.904,0.572053 1.779998,0.38 3.300048,1.003947 4.568048,1.871947 1.268,0.868 2.25195,2.02 2.95195,3.46 0.7,1.439999 1.04805,3.216026 1.04805,5.332026 0,2.284005 -0.52002,4.188025 -1.55602,5.712035 -1.036,1.524 -2.572,2.77199 -4.6,3.74399 2.792,0.804 4.87602,2.212 6.25202,4.22 1.376,2.008 2.064,4.43195 2.064,7.26795 0,2.284 -0.44405,4.26403 -1.33205,5.93603 -0.888,1.672 -2.08395,3.03602 -3.58795,4.09202 -1.504,1.06 -3.216,1.83998 -5.139998,2.34798 -1.936,0.508 -3.93205,0.764 -5.93205,0.76 h -21.96397 z m 46.732018,2.3 h 18.31595 v 5.079999 h -18.31595 z m -36.764048,5.448053 v 10.600008 l 10.08805,-0.008 c 1.776,0 3.236,-0.42395 4.38,-1.26795 1.144,-0.848 1.71595,-2.22 1.71195,-4.124005 0,-1.056 -0.192,-1.924 -0.57195,-2.6 -0.38,-0.676 -0.888,-1.208053 -1.524,-1.588053 -0.636,-0.38 -1.36405,-0.643947 -2.18805,-0.791947 -0.848,-0.148 -1.70795,-0.224 -2.57195,-0.22 z m 46.048048,3.047973 c 2.792,0 5.224,0.54 7.3,1.62 2.072,1.080005 3.77595,2.527975 5.10795,4.347975 1.332,1.82 2.29605,3.892 2.88805,6.22 0.592,2.328 0.80395,4.76 0.63595,7.3 h -23.67195 c 0.124,2.908 0.864,5.02403 2.216,6.33203 1.352,1.312 3.3,1.96797 5.84,1.96797 1.82,0 3.38395,-0.456 4.69595,-1.364 1.312,-0.908 2.11603,-1.87195 2.41203,-2.88795 h 7.93202 c -1.268,3.936 -3.216,6.748 -5.84,8.44 -2.624,1.692 -5.796,2.54 -9.52,2.54 -2.58,0 -4.908,-0.41202 -6.98,-1.23602 -2.072,-0.824 -3.82805,-1.99998 -5.26805,-3.52398 -1.44,-1.524 -2.55195,-3.34002 -3.33195,-5.45602 -0.78,-2.116 -1.17202,-4.444 -1.17202,-6.98 0,-2.452 0.39997,-4.73603 1.20397,-6.85203 0.804,-2.116 1.94805,-3.94397 3.42805,-5.48797 1.48,-1.544 3.248,-2.75998 5.3,-3.647978 2.052,-0.888 4.328,-1.332027 6.824,-1.332027 z m -0.256,6.783975 c -1.44,0 -2.63597,0.244 -3.58397,0.72806 -0.952,0.488 -1.712,1.08797 -2.284,1.80797 -0.572,0.72 -0.97205,1.47997 -1.20405,2.28397 -0.232,0.804 -0.37195,1.52403 -0.41195,2.15603 h 14.66 c -0.428,-2.28 -1.18003,-4.016 -2.25603,-5.2 -1.08,-1.184 -2.72,-1.77603 -4.92,-1.77603 z m -45.792018,7.55205 v 12.44 l 10.66,-0.003 c 0.94,0.003 1.87602,-0.092 2.79202,-0.28408 0.888,-0.192 1.67198,-0.50794 2.34798,-0.95194 0.676,-0.444 1.216,-1.04806 1.62,-1.80806 0.4,-0.76 0.60405,-1.736 0.60405,-2.91999 0,-2.324 -0.65605,-3.988 -1.96805,-4.98 -1.312,-0.996 -3.04798,-1.49195 -5.20398,-1.49195 z"
       id="background"
       style="display:inline;opacity:1;fill:#fc55a3;fill-opacity:1;stroke:#fc55a3;stroke-width:0.04;stroke-opacity:1" /></g></svg>