<?xml version="1.0" encoding="UTF-8" standalone="no"?>
<!-- Created with Inkscape (http://www.inkscape.org/) -->

<svg
   xmlns:dc="http://purl.org/dc/elements/1.1/"
   xmlns:cc="http://creativecommons.org/ns#"
   xmlns:rdf="http://www.w3.org/1999/02/22-rdf-syntax-ns#"
   xmlns:svg="http://www.w3.org/2000/svg"
   xmlns="http://www.w3.org/2000/svg"
   xmlns:sodipodi="http://sodipodi.sourceforge.net/DTD/sodipodi-0.dtd"
   xmlns:inkscape="http://www.inkscape.org/namespaces/inkscape"
   version="1.1"
   id="svg2"
   xml:space="preserve"
   width="100.04"
   height="100.04"
   viewBox="0 0 100.04 100.04"
   sodipodi:docname="github.svg"
   inkscape:version="0.92.5 (2060ec1f9f, 2020-04-08)"><metadata
     id="metadata8"><rdf:RDF><cc:Work
         rdf:about=""><dc:format>image/svg+xml</dc:format><dc:type
           rdf:resource="http://purl.org/dc/dcmitype/StillImage" /><dc:title></dc:title></cc:Work></rdf:RDF></metadata><defs
     id="defs6" /><sodipodi:namedview
     pagecolor="#ffffff"
     bordercolor="#666666"
     borderopacity="1"
     objecttolerance="10"
     gridtolerance="10"
     guidetolerance="10"
     inkscape:pageopacity="0"
     inkscape:pageshadow="2"
     inkscape:window-width="1920"
     inkscape:window-height="1012"
     id="namedview4"
     showgrid="false"
     inkscape:zoom="1.9433989"
     inkscape:cx="67.245446"
     inkscape:cy="-5.8084595"
     inkscape:window-x="0"
     inkscape:window-y="32"
     inkscape:window-maximized="1"
     inkscape:current-layer="layer3" /><g
     inkscape:groupmode="layer"
     id="layer3"
     inkscape:label="github"
     style="display:inline"
     transform="translate(-57.978802,4.2823871e-6)"><path
       inkscape:connector-curvature="0"
       style="display:inline;opacity:1;fill:#fc55a3;fill-opacity:1;stroke-width:0"
       d="M 107.99881,0 C 79.873797,0 57.998797,21.874999 57.998797,50.000005 c 0,32.81251 29.68751,46.875 34.375,46.875 3.125,0 3.125,-1.5625 3.125,-3.125 v -7.81249 c -10.93749,3.12499 -15.625,-3.125 -17.18749,-7.81251 0,0 0,-1.56249 -3.125,-4.68749 -1.56251,-1.56251 -7.81251,-4.68751 -1.56251,-4.68751 4.68751,0 7.81251,6.25 7.81251,6.25 4.68749,6.25 10.93749,4.68751 14.06249,3.125 0,-3.125 3.125,-6.25 3.125,-6.25 -12.5,-1.56249 -21.875,-6.25 -21.875,-23.43749 0,-6.25002 1.56251,-10.937516 4.68751,-14.062516 0,0 -3.125,-6.25 0,-14.062506 0,0 7.81249,0 14.06249,6.25 4.687513,-3.125 20.312513,-3.125 25.000013,0 6.25,-6.25 14.0625,-6.25 14.0625,-6.25 3.125,10.937506 0,14.062506 0,14.062506 3.125,3.125 4.6875,7.812496 4.6875,14.062516 0,17.18749 -10.9375,21.875 -21.875,23.43749 1.5625,1.56251 3.125,4.68751 3.125,9.375 v 12.5 c 0,1.5625 0,3.125 3.125,3.125 4.6875,0 34.375,-14.06249 34.375,-46.875 C 157.99881,21.874999 136.12381,0 107.99881,0 Z"
       id="path2" /></g></svg>