<?xml version="1.0" encoding="UTF-8" standalone="no"?>
<!-- Created with Inkscape (http://www.inkscape.org/) -->

<svg
   xmlns:dc="http://purl.org/dc/elements/1.1/"
   xmlns:cc="http://creativecommons.org/ns#"
   xmlns:rdf="http://www.w3.org/1999/02/22-rdf-syntax-ns#"
   xmlns:svg="http://www.w3.org/2000/svg"
   xmlns="http://www.w3.org/2000/svg"
   xmlns:sodipodi="http://sodipodi.sourceforge.net/DTD/sodipodi-0.dtd"
   xmlns:inkscape="http://www.inkscape.org/namespaces/inkscape"
   version="1.1"
   id="svg2"
   xml:space="preserve"
   width="100.04"
   height="100.04"
   viewBox="0 0 100.04 100.04"
   sodipodi:docname="linkedin.svg"
   inkscape:version="0.92.5 (2060ec1f9f, 2020-04-08)"><metadata
     id="metadata8"><rdf:RDF><cc:Work
         rdf:about=""><dc:format>image/svg+xml</dc:format><dc:type
           rdf:resource="http://purl.org/dc/dcmitype/StillImage" /><dc:title /></cc:Work></rdf:RDF></metadata><defs
     id="defs6" /><sodipodi:namedview
     pagecolor="#ffffff"
     bordercolor="#666666"
     borderopacity="1"
     objecttolerance="10"
     gridtolerance="10"
     guidetolerance="10"
     inkscape:pageopacity="0"
     inkscape:pageshadow="2"
     inkscape:window-width="1920"
     inkscape:window-height="1012"
     id="namedview4"
     showgrid="false"
     inkscape:zoom="1.9433989"
     inkscape:cx="-12.511726"
     inkscape:cy="-6.8375843"
     inkscape:window-x="0"
     inkscape:window-y="32"
     inkscape:window-maximized="1"
     inkscape:current-layer="layer5" /><g
     inkscape:groupmode="layer"
     id="layer5"
     inkscape:label="linkedin"
     style="display:inline"
     transform="translate(-57.978802,4.2823871e-6)"><path
       style="display:inline;opacity:1;fill:#fc55a3;fill-opacity:1;stroke-width:0.89993483"
       d="M 107.99968,0 A 50.000129,50.000129 0 0 0 57.998807,49.999116 50.000129,50.000129 0 0 0 107.99968,99.999986 50.000129,50.000129 0 0 0 157.9988,49.999116 50.000129,50.000129 0 0 0 107.99968,0 Z M 87.890017,26.215866 c 3.15301,0 5.70896,2.557348 5.70896,5.710721 0,3.153386 -2.55595,5.708973 -5.70896,5.708973 -3.15351,0 -5.71072,-2.555587 -5.71072,-5.708973 0,-3.153373 2.55721,-5.710721 5.71072,-5.710721 z M 100.71584,39.26492 h 11.34235 l -0.70835,4.510226 h 0.11947 c 2.40307,-2.6146 4.77479,-4.510226 8.83061,-4.510226 5.64715,0 13.51835,3.073056 13.51835,12.421576 v 22.09585 h -10.63399 v -18.95839 c 0,-3.33334 -2.10301,-6.53682 -5.52792,-6.53682 -3.18396,0 -6.30657,3.20348 -6.30657,6.53682 v 18.95839 h -10.634 z m -18.142823,0.9808 h 10.634 v 33.536626 h -10.634 z"
       id="path3875"
       inkscape:connector-curvature="0" /></g></svg>